<svg width="160" height="44" viewBox="0 0 160 44" fill="none" xmlns="http://www.w3.org/2000/svg">
  <rect width="44" height="44" rx="14" fill="url(#paint0_linear)" />
  <path d="M12 28V15h7.2c4.3 0 6.8 2.2 6.8 5.8 0 3.7-2.5 6-6.8 6H16v1.2H12Zm4-4.5h3c1.9 0 3-1 3-2.7 0-1.7-1.1-2.6-3-2.6h-3v5.3Z" fill="white"/>
  <path d="M38.2 16H52v3.6h-9.1V22H51v3.5h-8.1v2.6H52V32H38.2V16Z" fill="#0F172A"/>
  <path d="M55.7 16h4.7l5.4 8.8L71.1 16h4.6v16h-4.4v-9.4l-4.8 7.4h-.1l-4.8-7.3V32h-4.4V16Z" fill="#0F172A"/>
  <path d="M80.1 16h4.7l7.5 16h-5.1l-1.3-2.9h-6.8L77.8 32h-5L80.1 16Zm4.5 9.6-2-4.7-2 4.7h4Z" fill="#0F172A"/>
  <defs>
    <linearGradient id="paint0_linear" x1="3.02" y1="3.14" x2="41.72" y2="40.85" gradientUnits="userSpaceOnUse">
      <stop stop-color="#2563EB"/>
      <stop offset="1" stop-color="#0F766E"/>
    </linearGradient>
  </defs>
</svg>
